<svg width="32" height="32" viewBox="0 0 32 32" fill="none" xmlns="http://www.w3.org/2000/svg">
<path fill-rule="evenodd" clip-rule="evenodd" d="M15.9987 5.33301C21.72 5.33301 26.4823 8.57127 30.2182 14.8717L30.5112 15.3769L30.5723 15.5101L30.6108 15.621L30.6302 15.6938L30.6494 15.8037L30.6641 15.9376L30.6629 16.0849L30.6453 16.2322C30.6366 16.2812 30.6251 16.33 30.6108 16.3783L30.559 16.5218L30.5112 16.6224L30.4897 16.6612C26.804 23.1109 22.0901 26.5027 16.4156 26.6606L15.9987 26.6663C10.1379 26.6663 5.28333 23.2682 1.50772 16.6612C1.27347 16.2513 1.27347 15.7481 1.50772 15.3381C5.28333 8.73116 10.1379 5.33301 15.9987 5.33301ZM15.9987 7.99967C11.4525 7.99967 7.5976 10.526 4.37015 15.7409L4.21336 15.9997L4.37015 16.2585C7.50539 21.3243 11.2327 23.8531 15.6107 23.9935L15.9987 23.9997C20.5449 23.9997 24.3998 21.4733 27.6272 16.2585L27.7827 15.9997L27.6272 15.7409C24.492 10.675 20.7647 8.14623 16.3867 8.00587L15.9987 7.99967ZM15.9987 11.9997C13.7896 11.9997 11.9987 13.7905 11.9987 15.9997C11.9987 18.2088 13.7896 19.9997 15.9987 19.9997C18.2078 19.9997 19.9987 18.2088 19.9987 15.9997C19.9987 13.7905 18.2078 11.9997 15.9987 11.9997ZM15.9987 14.6663C16.7351 14.6663 17.332 15.2633 17.332 15.9997C17.332 16.7361 16.7351 17.333 15.9987 17.333C15.2623 17.333 14.6654 16.7361 14.6654 15.9997C14.6654 15.2633 15.2623 14.6663 15.9987 14.6663Z" fill="#1C1A1A"/>
</svg>
