<svg width="341" height="48" viewBox="0 0 341 48" fill="none" xmlns="http://www.w3.org/2000/svg">
<g clip-path="url(#clip0_351_673)">
<rect width="24" height="48" fill="#1C1A1A"/>
<rect x="28" width="24" height="48" fill="#1C1A1A"/>
<rect x="56" width="24" height="48" fill="#1C1A1A"/>
<path d="M84 0C97.2548 -1.15877e-06 108 10.7452 108 24C108 37.2548 97.2548 48 84 48L84 0Z" fill="#1C1A1A"/>
<path d="M135 0C121.745 -1.15877e-06 111 10.7452 111 24C111 37.2548 121.745 48 135 48L135 0Z" fill="#1C1A1A"/>
<rect x="138" width="24" height="24" rx="12" fill="#1C1A1A"/>
<path d="M194.029 30.5102V21.3828L190.283 30.5102H188.171L184.424 21.4562V30.5102H182V17.4893H185.342L189.254 26.8923L193.074 17.4893H196.527V30.5102H194.029Z" fill="#1C1A1A"/>
<path d="M201.726 23.9906C201.726 24.7252 201.843 25.368 202.075 25.9189C202.308 26.4576 202.614 26.9045 202.994 27.2596C203.385 27.6146 203.82 27.884 204.298 28.0677C204.787 28.2391 205.283 28.3248 205.785 28.3248C206.287 28.3248 206.783 28.2391 207.273 28.0677C207.762 27.884 208.197 27.6146 208.577 27.2596C208.968 26.9045 209.281 26.4576 209.513 25.9189C209.746 25.368 209.862 24.7252 209.862 23.9906C209.862 23.256 209.746 22.6193 209.513 22.0806C209.281 21.5297 208.968 21.0767 208.577 20.7216C208.197 20.3665 207.762 20.1033 207.273 19.9319C206.783 19.7483 206.287 19.6564 205.785 19.6564C205.283 19.6564 204.787 19.7483 204.298 19.9319C203.82 20.1033 203.385 20.3665 202.994 20.7216C202.614 21.0767 202.308 21.5297 202.075 22.0806C201.843 22.6193 201.726 23.256 201.726 23.9906ZM199.1 24.009C199.1 22.956 199.284 22.0133 199.651 21.1807C200.018 20.3359 200.508 19.6197 201.12 19.032C201.733 18.4443 202.443 17.9974 203.251 17.6914C204.059 17.373 204.904 17.2139 205.785 17.2139C206.667 17.2139 207.511 17.373 208.32 17.6914C209.14 17.9974 209.856 18.4443 210.468 19.032C211.08 19.6197 211.57 20.3359 211.937 21.1807C212.305 22.0133 212.488 22.956 212.488 24.009C212.488 25.0619 212.305 26.0046 211.937 26.8372C211.57 27.6697 211.08 28.3799 210.468 28.9675C209.856 29.5552 209.14 30.0082 208.32 30.3266C207.511 30.6327 206.667 30.7857 205.785 30.7857C204.904 30.7857 204.059 30.6327 203.251 30.3266C202.443 30.0082 201.733 29.5552 201.12 28.9675C200.508 28.3799 200.018 27.6697 199.651 26.8372C199.284 26.0046 199.1 25.0619 199.1 24.009Z" fill="#1C1A1A"/>
<path d="M218.928 25.4965H217.606V30.5102H215.053V17.4893H220.14C220.777 17.4893 221.346 17.5934 221.848 17.8016C222.362 18.0097 222.797 18.2913 223.152 18.6463C223.519 19.0014 223.801 19.4238 223.997 19.9135C224.193 20.4033 224.291 20.9297 224.291 21.4929C224.291 22.4112 224.04 23.1948 223.538 23.8437C223.048 24.4926 222.374 24.9395 221.517 25.1843L224.309 30.5102H221.481L218.928 25.4965ZM219.663 23.3111C220.311 23.3111 220.813 23.1458 221.169 22.8152C221.524 22.4847 221.701 22.05 221.701 21.5113C221.701 20.9604 221.524 20.5196 221.169 20.189C220.813 19.8584 220.311 19.6932 219.663 19.6932H217.606V23.3111H219.663Z" fill="#1C1A1A"/>
<path d="M226.898 30.5102V17.4893H229.47V30.5102H226.898Z" fill="#1C1A1A"/>
<path d="M239.29 21.2909C239.254 21.1073 239.186 20.9114 239.088 20.7032C239.003 20.4829 238.868 20.2808 238.684 20.0972C238.501 19.9135 238.262 19.7605 237.968 19.6381C237.687 19.5156 237.338 19.4544 236.921 19.4544C236.615 19.4544 236.334 19.5034 236.077 19.6013C235.832 19.687 235.617 19.8095 235.434 19.9686C235.262 20.1156 235.128 20.287 235.03 20.4829C234.932 20.6788 234.883 20.8869 234.883 21.1073C234.883 21.4623 234.999 21.7745 235.232 22.0439C235.464 22.301 235.819 22.4785 236.297 22.5765L238.115 22.9254C238.703 23.0356 239.223 23.2131 239.676 23.458C240.129 23.7029 240.509 23.9967 240.815 24.3395C241.121 24.6701 241.353 25.0435 241.513 25.4598C241.672 25.8761 241.751 26.3107 241.751 26.7637C241.751 27.2657 241.647 27.7616 241.439 28.2513C241.231 28.7288 240.925 29.1573 240.521 29.5369C240.129 29.9042 239.639 30.2041 239.052 30.4368C238.476 30.6694 237.809 30.7857 237.05 30.7857C236.181 30.7857 235.434 30.6633 234.809 30.4184C234.185 30.1613 233.658 29.8368 233.23 29.445C232.814 29.0533 232.495 28.6186 232.275 28.1411C232.055 27.6514 231.92 27.1739 231.871 26.7086L234.222 26.0842C234.246 26.4026 234.32 26.7086 234.442 27.0025C234.577 27.2963 234.76 27.5596 234.993 27.7922C235.226 28.0126 235.513 28.1901 235.856 28.3248C236.199 28.4594 236.603 28.5268 237.068 28.5268C237.754 28.5268 238.274 28.3799 238.629 28.086C238.997 27.7799 239.18 27.3943 239.18 26.929C239.18 26.5495 239.046 26.225 238.776 25.9557C238.507 25.6741 238.115 25.4843 237.601 25.3863L235.783 25.019C234.742 24.8109 233.909 24.3885 233.285 23.7519C232.673 23.103 232.367 22.2826 232.367 21.2909C232.367 20.7155 232.483 20.1829 232.716 19.6932C232.961 19.1912 233.291 18.7565 233.707 18.3892C234.124 18.0219 234.607 17.7342 235.158 17.5261C235.709 17.3179 236.291 17.2139 236.903 17.2139C237.687 17.2139 238.354 17.3241 238.905 17.5444C239.468 17.7526 239.933 18.0219 240.301 18.3525C240.668 18.6831 240.949 19.0504 241.145 19.4544C241.353 19.8462 241.494 20.2257 241.568 20.5931L239.29 21.2909Z" fill="#1C1A1A"/>
<path d="M328.055 25.357C327.489 25.357 326.96 25.2615 326.468 25.0705C325.976 24.8721 325.546 24.5966 325.179 24.244C324.819 23.8914 324.533 23.4654 324.32 22.9658C324.107 22.4663 324 21.9117 324 21.3019C324 20.6922 324.107 20.1376 324.32 19.6381C324.54 19.1312 324.834 18.7014 325.201 18.3488C325.568 17.9889 325.994 17.7097 326.479 17.5114C326.971 17.313 327.489 17.2139 328.033 17.2139C328.621 17.2139 329.128 17.2983 329.554 17.4673C329.98 17.6363 330.34 17.853 330.633 18.1174C330.927 18.3745 331.155 18.6574 331.317 18.9659C331.486 19.2744 331.603 19.5683 331.669 19.8474L330.027 20.3653C329.998 20.2331 329.939 20.0825 329.851 19.9135C329.77 19.7446 329.653 19.5866 329.499 19.4397C329.344 19.2855 329.146 19.1606 328.903 19.0651C328.668 18.9622 328.378 18.9108 328.033 18.9108C327.769 18.9108 327.504 18.9586 327.24 19.0541C326.975 19.1496 326.736 19.2965 326.523 19.4948C326.31 19.6858 326.138 19.9319 326.005 20.2331C325.873 20.5343 325.807 20.8906 325.807 21.3019C325.807 21.6692 325.87 21.9961 325.994 22.2826C326.119 22.5691 326.285 22.8116 326.49 23.0099C326.703 23.2082 326.942 23.3588 327.207 23.4617C327.478 23.5645 327.761 23.616 328.055 23.616C328.393 23.616 328.683 23.5682 328.926 23.4727C329.168 23.3699 329.37 23.245 329.532 23.0981C329.693 22.9438 329.818 22.7822 329.906 22.6132C330.002 22.4443 330.068 22.29 330.105 22.1504L331.768 22.6242C331.702 22.896 331.585 23.1899 331.416 23.5058C331.254 23.8216 331.023 24.1192 330.722 24.3983C330.428 24.6701 330.06 24.8978 329.62 25.0815C329.179 25.2651 328.657 25.357 328.055 25.357Z" fill="#1C1A1A"/>
<path d="M334.475 21.2799C334.475 21.6913 334.541 22.0439 334.673 22.3377C334.805 22.6316 334.978 22.8777 335.191 23.076C335.411 23.267 335.654 23.4103 335.918 23.5058C336.19 23.5939 336.462 23.638 336.734 23.638C337.005 23.638 337.274 23.5939 337.538 23.5058C337.81 23.4103 338.052 23.267 338.265 23.076C338.478 22.8777 338.651 22.6316 338.783 22.3377C338.915 22.0439 338.982 21.6913 338.982 21.2799C338.982 20.8759 338.915 20.5233 338.783 20.2221C338.651 19.9209 338.478 19.6748 338.265 19.4838C338.052 19.2928 337.81 19.1496 337.538 19.0541C337.274 18.9586 337.005 18.9108 336.734 18.9108C336.462 18.9108 336.19 18.9586 335.918 19.0541C335.654 19.1496 335.411 19.2928 335.191 19.4838C334.978 19.6748 334.805 19.9209 334.673 20.2221C334.541 20.5233 334.475 20.8759 334.475 21.2799ZM332.668 21.2909C332.668 20.6739 332.774 20.1156 332.987 19.616C333.208 19.1091 333.501 18.6794 333.869 18.3268C334.243 17.9668 334.677 17.6914 335.169 17.5004C335.661 17.3094 336.183 17.2139 336.734 17.2139C337.285 17.2139 337.803 17.3094 338.287 17.5004C338.78 17.6914 339.209 17.9668 339.577 18.3268C339.951 18.6794 340.245 19.1091 340.458 19.616C340.678 20.1156 340.789 20.6739 340.789 21.2909C340.789 21.908 340.678 22.4663 340.458 22.9658C340.245 23.4654 339.951 23.8951 339.577 24.2551C339.209 24.6077 338.78 24.8795 338.287 25.0705C337.803 25.2615 337.285 25.357 336.734 25.357C336.183 25.357 335.661 25.2615 335.169 25.0705C334.677 24.8795 334.243 24.6077 333.869 24.2551C333.501 23.8951 333.208 23.4654 332.987 22.9658C332.774 22.4663 332.668 21.908 332.668 21.2909Z" fill="#1C1A1A"/>
<path d="M253.555 28.1595C254.081 28.1595 254.583 28.0799 255.06 27.9207C255.538 27.7493 255.954 27.4922 256.309 27.1494C256.664 26.8066 256.946 26.3781 257.154 25.8638C257.362 25.3374 257.466 24.7191 257.466 24.009C257.466 23.2988 257.362 22.6867 257.154 22.1725C256.946 21.646 256.664 21.2113 256.309 20.8685C255.967 20.5257 255.556 20.2686 255.079 20.0972C254.601 19.9258 254.099 19.8401 253.573 19.8401H251.534V28.1595H253.555ZM249 30.5102V17.4893H253.665C254.595 17.4893 255.452 17.6363 256.236 17.9301C257.019 18.2239 257.693 18.6525 258.256 19.2157C258.831 19.7666 259.278 20.4461 259.597 21.2542C259.927 22.0623 260.093 22.9805 260.093 24.009C260.093 25.0374 259.927 25.9557 259.597 26.7637C259.278 27.5718 258.831 28.2513 258.256 28.8023C257.681 29.3532 257.001 29.7756 256.217 30.0695C255.434 30.3633 254.577 30.5102 253.646 30.5102H249Z" fill="#1C1A1A"/>
<path d="M262.657 30.5102V17.4893H270.811V19.8768H265.191V22.852H270.278V25.1109H265.191V28.1228H270.811V30.5102H262.657Z" fill="#1C1A1A"/>
<path d="M280.196 21.2909C280.159 21.1073 280.092 20.9114 279.994 20.7032C279.908 20.4829 279.774 20.2808 279.59 20.0972C279.406 19.9135 279.168 19.7605 278.874 19.6381C278.592 19.5156 278.243 19.4544 277.827 19.4544C277.521 19.4544 277.239 19.5034 276.982 19.6013C276.737 19.687 276.523 19.8095 276.339 19.9686C276.168 20.1156 276.033 20.287 275.935 20.4829C275.838 20.6788 275.789 20.8869 275.789 21.1073C275.789 21.4623 275.905 21.7745 276.137 22.0439C276.37 22.301 276.725 22.4785 277.203 22.5765L279.021 22.9254C279.608 23.0356 280.129 23.2131 280.582 23.458C281.035 23.7029 281.414 23.9967 281.72 24.3395C282.027 24.6701 282.259 25.0435 282.418 25.4598C282.578 25.8761 282.657 26.3107 282.657 26.7637C282.657 27.2657 282.553 27.7616 282.345 28.2513C282.137 28.7288 281.831 29.1573 281.427 29.5369C281.035 29.9042 280.545 30.2041 279.957 30.4368C279.382 30.6694 278.715 30.7857 277.956 30.7857C277.086 30.7857 276.34 30.6633 275.715 30.4184C275.091 30.1613 274.564 29.8368 274.136 29.445C273.719 29.0533 273.401 28.6186 273.181 28.1411C272.96 27.6514 272.826 27.1739 272.777 26.7086L275.127 26.0842C275.152 26.4026 275.225 26.7086 275.348 27.0025C275.482 27.2963 275.666 27.5596 275.899 27.7922C276.131 28.0126 276.419 28.1901 276.762 28.3248C277.105 28.4594 277.509 28.5268 277.974 28.5268C278.66 28.5268 279.18 28.3799 279.535 28.086C279.902 27.7799 280.086 27.3943 280.086 26.929C280.086 26.5495 279.951 26.225 279.682 25.9557C279.413 25.6741 279.021 25.4843 278.507 25.3863L276.688 25.019C275.648 24.8109 274.815 24.3885 274.191 23.7519C273.579 23.103 273.273 22.2826 273.273 21.2909C273.273 20.7155 273.389 20.1829 273.621 19.6932C273.866 19.1912 274.197 18.7565 274.613 18.3892C275.029 18.0219 275.513 17.7342 276.064 17.5261C276.615 17.3179 277.197 17.2139 277.809 17.2139C278.592 17.2139 279.26 17.3241 279.811 17.5444C280.374 17.7526 280.839 18.0219 281.206 18.3525C281.574 18.6831 281.855 19.0504 282.051 19.4544C282.259 19.8462 282.4 20.2257 282.473 20.5931L280.196 21.2909Z" fill="#1C1A1A"/>
<path d="M285.164 30.5102V17.4893H287.735V30.5102H285.164Z" fill="#1C1A1A"/>
<path d="M300.807 30.5102L300.642 29.0226C300.495 29.243 300.305 29.4634 300.072 29.6838C299.84 29.8919 299.558 30.0817 299.227 30.2531C298.909 30.4123 298.548 30.5408 298.144 30.6388C297.74 30.7367 297.293 30.7857 296.803 30.7857C295.922 30.7857 295.089 30.6327 294.306 30.3266C293.522 30.0082 292.83 29.5614 292.23 28.9859C291.643 28.3982 291.171 27.6881 290.816 26.8556C290.473 26.0108 290.302 25.0619 290.302 24.009C290.302 22.956 290.48 22.0133 290.835 21.1807C291.202 20.3359 291.692 19.6197 292.304 19.032C292.928 18.4443 293.638 17.9974 294.434 17.6914C295.242 17.373 296.087 17.2139 296.969 17.2139C297.826 17.2139 298.585 17.3302 299.246 17.5628C299.919 17.7832 300.501 18.0831 300.991 18.4627C301.48 18.8422 301.884 19.2708 302.203 19.7483C302.521 20.2257 302.76 20.7155 302.919 21.2175L300.495 22.0806C300.409 21.7868 300.274 21.4929 300.091 21.1991C299.919 20.9053 299.687 20.642 299.393 20.4094C299.111 20.1645 298.768 19.9686 298.364 19.8217C297.96 19.6626 297.495 19.583 296.969 19.583C296.479 19.583 295.989 19.6687 295.499 19.8401C295.01 20.0115 294.569 20.2808 294.177 20.6481C293.798 21.0032 293.485 21.4623 293.24 22.0255C292.996 22.5765 292.873 23.2376 292.873 24.009C292.873 24.7436 292.983 25.3925 293.204 25.9557C293.436 26.5066 293.736 26.9719 294.104 27.3514C294.483 27.7187 294.918 28.0003 295.408 28.1962C295.909 28.3799 296.436 28.4717 296.987 28.4717C297.587 28.4717 298.101 28.386 298.53 28.2146C298.958 28.0309 299.307 27.8105 299.576 27.5534C299.858 27.2963 300.066 27.0208 300.201 26.727C300.348 26.4332 300.44 26.1699 300.476 25.9373H296.363V23.7335H302.864V30.5102H300.807Z" fill="#1C1A1A"/>
<path d="M314.236 30.5102L308.323 21.2726V30.5102H305.788V17.4893H308.947L314.365 26.1026V17.4893H316.899V30.5102H314.236Z" fill="#1C1A1A"/>
</g>
<defs>
<clipPath id="clip0_351_673">
<rect width="340.789" height="48" fill="white"/>
</clipPath>
</defs>
</svg>
